<svg width="625pt" height="206pt" viewBox="0.00 0.00 625.00 206.00" xmlns="http://www.w3.org/2000/svg" xmlns:xlink="http://www.w3.org/1999/xlink">
<g id="graph0" class="graph" transform="scale(1 1) rotate(0) translate(4 202)">
<title>G</title>
<polygon fill="white" stroke="none" points="-4,4 -4,-202 620.75,-202 620.75,4 -4,4"/>
<!-- const1 -->
<g id="node1" class="node">
<title>const1</title>
<ellipse fill="none" stroke="black" cx="27" cy="-123" rx="27" ry="18"/>
<text xml:space="preserve" text-anchor="middle" x="27" y="-118.8" font-family="Times,serif" font-size="14.00">1.0</text>
</g>
<!-- add1 -->
<g id="node6" class="node">
<title>add1</title>
<ellipse fill="none" stroke="black" cx="122.5" cy="-123" rx="27.67" ry="18"/>
<text xml:space="preserve" text-anchor="middle" x="122.5" y="-118.8" font-family="Times,serif" font-size="14.00">Add</text>
</g>
<!-- const1&#45;&gt;add1 -->
<g id="edge1" class="edge">
<title>const1-&gt;add1</title>
<path fill="none" stroke="black" d="M54.04,-123C63.13,-123 73.53,-123 83.39,-123"/>
<polygon fill="black" stroke="black" points="83.1,-126.5 93.1,-123 83.1,-119.5 83.1,-126.5"/>
</g>
<!-- const2a -->
<g id="node2" class="node">
<title>const2a</title>
<ellipse fill="none" stroke="black" cx="308.38" cy="-180" rx="27" ry="18"/>
<text xml:space="preserve" text-anchor="middle" x="308.38" y="-175.8" font-family="Times,serif" font-size="14.00">2.0</text>
</g>
<!-- div4 -->
<g id="node10" class="node">
<title>div4</title>
<ellipse fill="none" stroke="black" cx="398.51" cy="-153" rx="27" ry="18"/>
<text xml:space="preserve" text-anchor="middle" x="398.51" y="-148.8" font-family="Times,serif" font-size="14.00">Div</text>
</g>
<!-- const2a&#45;&gt;div4 -->
<g id="edge8" class="edge">
<title>const2a-&gt;div4</title>
<path fill="none" stroke="black" d="M333.46,-172.62C342.5,-169.85 352.95,-166.65 362.76,-163.64"/>
<polygon fill="black" stroke="black" points="363.47,-167.09 372.01,-160.81 361.42,-160.39 363.47,-167.09"/>
</g>
<!-- const2b -->
<g id="node3" class="node">
<title>const2b</title>
<ellipse fill="none" stroke="black" cx="308.38" cy="-72" rx="27" ry="18"/>
<text xml:space="preserve" text-anchor="middle" x="308.38" y="-67.8" font-family="Times,serif" font-size="14.00">2.0</text>
</g>
<!-- div5 -->
<g id="node14" class="node">
<title>div5</title>
<ellipse fill="none" stroke="black" cx="398.51" cy="-45" rx="27" ry="18"/>
<text xml:space="preserve" text-anchor="middle" x="398.51" y="-40.8" font-family="Times,serif" font-size="14.00">Div</text>
</g>
<!-- const2b&#45;&gt;div5 -->
<g id="edge14" class="edge">
<title>const2b-&gt;div5</title>
<path fill="none" stroke="black" d="M333.46,-64.62C342.5,-61.85 352.95,-58.65 362.76,-55.64"/>
<polygon fill="black" stroke="black" points="363.47,-59.09 372.01,-52.81 361.42,-52.39 363.47,-59.09"/>
</g>
<!-- a -->
<g id="node4" class="node">
<title>a</title>
<ellipse fill="none" stroke="black" cx="27" cy="-69" rx="27" ry="18"/>
<text xml:space="preserve" text-anchor="middle" x="27" y="-64.8" font-family="Times,serif" font-size="14.00">a</text>
</g>
<!-- a&#45;&gt;add1 -->
<g id="edge2" class="edge">
<title>a-&gt;add1</title>
<path fill="none" stroke="black" d="M47.83,-80.45C60.42,-87.73 76.97,-97.29 91.2,-105.5"/>
<polygon fill="black" stroke="black" points="89.33,-108.46 99.74,-110.43 92.83,-102.4 89.33,-108.46"/>
</g>
<!-- mul4 -->
<g id="node9" class="node">
<title>mul4</title>
<ellipse fill="none" stroke="black" cx="308.38" cy="-126" rx="27.13" ry="18"/>
<text xml:space="preserve" text-anchor="middle" x="308.38" y="-121.8" font-family="Times,serif" font-size="14.00">Mul</text>
</g>
<!-- a&#45;&gt;mul4 -->
<g id="edge5" class="edge">
<title>a-&gt;mul4</title>
<path fill="none" stroke="black" d="M54.31,-69.52C95.73,-70.96 178.35,-76.28 245.24,-96 256.04,-99.18 267.29,-104.08 277.2,-108.99"/>
<polygon fill="black" stroke="black" points="275.51,-112.06 286,-113.56 278.73,-105.84 275.51,-112.06"/>
</g>
<!-- mul5 -->
<g id="node13" class="node">
<title>mul5</title>
<ellipse fill="none" stroke="black" cx="308.38" cy="-18" rx="27.13" ry="18"/>
<text xml:space="preserve" text-anchor="middle" x="308.38" y="-13.8" font-family="Times,serif" font-size="14.00">Mul</text>
</g>
<!-- a&#45;&gt;mul5 -->
<g id="edge11" class="edge">
<title>a-&gt;mul5</title>
<path fill="none" stroke="black" d="M53.29,-64.38C102.92,-55.32 213.27,-35.18 270.84,-24.67"/>
<polygon fill="black" stroke="black" points="271.25,-28.15 280.46,-22.91 269.99,-21.27 271.25,-28.15"/>
</g>
<!-- x1 -->
<g id="node5" class="node">
<title>x1</title>
<ellipse fill="none" stroke="black" cx="27" cy="-177" rx="27" ry="18"/>
<text xml:space="preserve" text-anchor="middle" x="27" y="-172.8" font-family="Times,serif" font-size="14.00">x1</text>
</g>
<!-- S1_0 -->
<g id="node8" class="node">
<title>S1_0</title>
<ellipse fill="none" stroke="black" cx="122.5" cy="-177" rx="32.5" ry="18"/>
<text xml:space="preserve" text-anchor="middle" x="122.5" y="-172.8" font-family="Times,serif" font-size="14.00">S1[0]</text>
</g>
<!-- x1&#45;&gt;S1_0 -->
<g id="edge4" class="edge">
<title>x1-&gt;S1_0</title>
<path fill="none" stroke="black" d="M54.04,-177C61.54,-177 69.92,-177 78.16,-177"/>
<polygon fill="black" stroke="black" points="78.09,-180.5 88.09,-177 78.09,-173.5 78.09,-180.5"/>
</g>
<!-- v0 -->
<g id="node7" class="node">
<title>v0</title>
<ellipse fill="none" stroke="black" cx="218.12" cy="-123" rx="27.13" ry="18"/>
<text xml:space="preserve" text-anchor="middle" x="218.12" y="-118.8" font-family="Times,serif" font-size="14.00">v[0]</text>
</g>
<!-- add1&#45;&gt;v0 -->
<g id="edge3" class="edge">
<title>add1-&gt;v0</title>
<path fill="none" stroke="black" d="M150.57,-123C159.56,-123 169.73,-123 179.37,-123"/>
<polygon fill="black" stroke="black" points="179.23,-126.5 189.23,-123 179.23,-119.5 179.23,-126.5"/>
</g>
<!-- v0&#45;&gt;mul4 -->
<g id="edge6" class="edge">
<title>v0-&gt;mul4</title>
<path fill="none" stroke="black" d="M245.6,-123.9C253.1,-124.16 261.42,-124.44 269.46,-124.71"/>
<polygon fill="black" stroke="black" points="269.29,-128.21 279.4,-125.05 269.53,-121.21 269.29,-128.21"/>
</g>
<!-- v0&#45;&gt;mul5 -->
<g id="edge12" class="edge">
<title>v0-&gt;mul5</title>
<path fill="none" stroke="black" d="M231.29,-106.8C243.51,-90.76 263.07,-65.68 281.24,-45 282.35,-43.74 283.49,-42.47 284.66,-41.19"/>
<polygon fill="black" stroke="black" points="287.12,-43.68 291.42,-34 282.02,-38.88 287.12,-43.68"/>
</g>
<!-- mul4&#45;&gt;div4 -->
<g id="edge7" class="edge">
<title>mul4-&gt;div4</title>
<path fill="none" stroke="black" d="M333.46,-133.38C342.5,-136.15 352.95,-139.35 362.76,-142.36"/>
<polygon fill="black" stroke="black" points="361.42,-145.61 372.01,-145.19 363.47,-138.91 361.42,-145.61"/>
</g>
<!-- neg4 -->
<g id="node11" class="node">
<title>neg4</title>
<ellipse fill="none" stroke="black" cx="488.64" cy="-153" rx="27.13" ry="18"/>
<text xml:space="preserve" text-anchor="middle" x="488.64" y="-148.8" font-family="Times,serif" font-size="14.00">Neg</text>
</g>
<!-- div4&#45;&gt;neg4 -->
<g id="edge9" class="edge">
<title>div4-&gt;neg4</title>
<path fill="none" stroke="black" d="M425.95,-153C433.45,-153 441.75,-153 449.78,-153"/>
<polygon fill="black" stroke="black" points="449.7,-156.5 459.7,-153 449.7,-149.5 449.7,-156.5"/>
</g>
<!-- S1_4 -->
<g id="node12" class="node">
<title>S1_4</title>
<ellipse fill="none" stroke="black" cx="584.26" cy="-153" rx="32.5" ry="18"/>
<text xml:space="preserve" text-anchor="middle" x="584.26" y="-148.8" font-family="Times,serif" font-size="14.00">S1[4]</text>
</g>
<!-- neg4&#45;&gt;S1_4 -->
<g id="edge10" class="edge">
<title>neg4-&gt;S1_4</title>
<path fill="none" stroke="black" d="M516.21,-153C523.64,-153 531.9,-153 540.02,-153"/>
<polygon fill="black" stroke="black" points="539.78,-156.5 549.78,-153 539.78,-149.5 539.78,-156.5"/>
</g>
<!-- mul5&#45;&gt;div5 -->
<g id="edge13" class="edge">
<title>mul5-&gt;div5</title>
<path fill="none" stroke="black" d="M333.46,-25.38C342.5,-28.15 352.95,-31.35 362.76,-34.36"/>
<polygon fill="black" stroke="black" points="361.42,-37.61 372.01,-37.19 363.47,-30.91 361.42,-37.61"/>
</g>
<!-- neg5 -->
<g id="node15" class="node">
<title>neg5</title>
<ellipse fill="none" stroke="black" cx="488.64" cy="-45" rx="27.13" ry="18"/>
<text xml:space="preserve" text-anchor="middle" x="488.64" y="-40.8" font-family="Times,serif" font-size="14.00">Neg</text>
</g>
<!-- div5&#45;&gt;neg5 -->
<g id="edge15" class="edge">
<title>div5-&gt;neg5</title>
<path fill="none" stroke="black" d="M425.95,-45C433.45,-45 441.75,-45 449.78,-45"/>
<polygon fill="black" stroke="black" points="449.7,-48.5 459.7,-45 449.7,-41.5 449.7,-48.5"/>
</g>
<!-- S1_5 -->
<g id="node16" class="node">
<title>S1_5</title>
<ellipse fill="none" stroke="black" cx="584.26" cy="-45" rx="32.5" ry="18"/>
<text xml:space="preserve" text-anchor="middle" x="584.26" y="-40.8" font-family="Times,serif" font-size="14.00">S1[5]</text>
</g>
<!-- neg5&#45;&gt;S1_5 -->
<g id="edge16" class="edge">
<title>neg5-&gt;S1_5</title>
<path fill="none" stroke="black" d="M516.21,-45C523.64,-45 531.9,-45 540.02,-45"/>
<polygon fill="black" stroke="black" points="539.78,-48.5 549.78,-45 539.78,-41.5 539.78,-48.5"/>
</g>
</g>
</svg>